# xmcd
#
# Track frame offsets: 
#        150
#        16412
#        54457
#        72587
#        94727
#        124397
#        152990
#        181265
#        201127
#        214445
#
# Disc length: 3233 seconds
#
# Revision: 1
# Processed by: cddbd v1.5.2PL0 Copyright (c) Steve Scherf et al.
# Submitted via: ExactAudioCopy v0.99pb3
#
DISCID=960c9f0a
DTITLE=Deadsoul Tribe - A Lullaby For The Devil
DYEAR=2007
DGENRE=Progressive Metal
TTITLE0=Psychosphere
TTITLE1=Good Bye City Life
TTITLE2=Here Come The Pigs
TTITLE3=Lost In You
TTITLE4=A Stairway To Nowhere
TTITLE5=The Gossamer Strand
TTITLE6=Any Sign At All
TTITLE7=Fear
TTITLE8=Further Down
TTITLE9=A Lullaby For The Devil
EXTD=
EXTT0=
EXTT1=
EXTT2=
EXTT3=
EXTT4=
EXTT5=
EXTT6=
EXTT7=
EXTT8=
EXTT9=
PLAYORDER=
